<?xml version="1.0" encoding="UTF-8"?>
<svg enable-background="new 0 0 449 590.9" version="1.1" viewBox="0 0 449 590.9" xml:space="preserve"
    xmlns="http://www.w3.org/2000/svg">
    <style type="text/css">
	.st0{fill:#242814;}
    </style>
    <path class="st0" d="m293.8 382.3c0-42 34.3-76.3 75.7-76.3 45.2 0 79.5 34.3 79.5 76.3 0 44.5-34.3 78.9-79.5 78.9-41.3-0.1-75.7-34.4-75.7-78.9z"/>
    <path class="st0" d="m233.4 426.8c0 99.9-62.3 164.1-136.7 164.1-56 0-96.7-35.6-96.7-84.6 0-28.6 22.3-62.3 66.8-62.3 43.9 0 64.9 29.9 64.9 64.9 0 43.9-29.9 59.1-29.9 70 0 3.2 1.9 5.7 7.6 5.7 33.7 0 74.4-24.8 74.4-71.9 0-43.2-27.3-85.9-90.3-85.9v-297c0-85.9-12.7-117-57.2-127.2v-2.6h254.4v2.5c-44.5 10.2-57.2 41.3-57.2 127.2v297.1z"/>
</svg>